<?xml version="1.0" encoding="utf-8"?>
<!-- Generated by Shoe Palace, Inc. http://www.shoepalace.com/ -->
<!DOCTYPE svg PUBLIC "-//W3C//DTD SVG 1.1//EN" "http://www.w3.org/Graphics/SVG/1.1/DTD/svg11.dtd">
<svg preserveAspectRatio="xMidYMid" width="256px" height="256px" viewBox="0 0 256 256" xmlns="http://www.w3.org/2000/svg" version="1.1" xmlns:xlink="http://www.w3.org/1999/xlink">
	<path fill="#fa5400" d="M28.239,173.581c-7.627-0.302-13.87-2.39-18.749-6.267c-0.931-0.74-3.15-2.96-3.894-3.897c-1.979-2.486-3.324-4.909-4.222-7.596c-2.761-8.271-1.339-19.124,4.064-31.034c4.627-10.196,11.769-20.309,24.227-34.316c1.834-2.061,7.3-8.089,7.334-8.089c0.014,0-0.283,0.517-0.658,1.146c-3.24,5.424-6.011,11.816-7.522,17.347c-2.425,8.879-2.133,16.496,0.857,22.404c2.063,4.07,5.598,7.594,9.574,9.542c6.96,3.411,17.15,3.693,29.595,0.825c0.857-0.197,43.314-11.467,94.35-25.045C214.229,95.025,255.993,83.923,256,83.933c0.014,0.011-118.569,50.754-180.128,77.08c-9.75,4.168-12.357,5.221-16.939,6.829C47.216,171.955,36.721,173.918,28.239,173.581z"/>
</svg>
